<svg width="16" height="16" viewBox="0 0 16 16" fill="none" xmlns="http://www.w3.org/2000/svg">
<path d="M13.7636 1.38725C14.2325 1.38725 14.6126 1.76739 14.6126 2.23631L14.6126 5.66138C14.6126 6.1303 14.2325 6.51044 13.7636 6.51044L10.3385 6.51044C9.86959 6.51044 9.48946 6.1303 9.48946 5.66138L9.48946 2.23631C9.48946 1.76739 9.86959 1.38725 10.3385 1.38725L13.7636 1.38725Z" stroke="#E9ECEF" stroke-opacity="0.5" stroke-width="2"/>
<path d="M13.7636 9.48935C14.2325 9.48935 14.6126 9.86949 14.6126 10.3384V13.7635C14.6126 14.2324 14.2325 14.6125 13.7636 14.6125L10.3385 14.6125C9.86959 14.6125 9.48946 14.2324 9.48946 13.7635V10.3384C9.48946 9.86949 9.86959 9.48935 10.3385 9.48935L13.7636 9.48935Z" stroke="#E9ECEF" stroke-opacity="0.5" stroke-width="2"/>
<path d="M5.66149 1.38725C6.13041 1.38725 6.51054 1.76739 6.51054 2.23631L6.51054 5.66138C6.51054 6.13031 6.13041 6.51044 5.66149 6.51044L2.23641 6.51044C1.76749 6.51044 1.38736 6.1303 1.38736 5.66138L1.38736 2.23631C1.38736 1.76739 1.76749 1.38725 2.23641 1.38725H5.66149Z" stroke="#E9ECEF" stroke-opacity="0.5" stroke-width="2"/>
<path d="M5.66149 9.48935C6.13041 9.48935 6.51055 9.86949 6.51055 10.3384L6.51054 13.7635C6.51054 14.2324 6.13041 14.6125 5.66149 14.6125L2.23641 14.6125C1.76749 14.6125 1.38736 14.2324 1.38736 13.7635L1.38736 10.3384C1.38736 9.86949 1.76749 9.48935 2.23641 9.48935L5.66149 9.48935Z" stroke="#E9ECEF" stroke-opacity="0.5" stroke-width="2"/>
</svg>
