<?xml version="1.0" encoding="UTF-8"?>
<svg id="_레이어_2" data-name="레이어 2" xmlns="http://www.w3.org/2000/svg" viewBox="0 0 500 278.86">
  <defs>
    <style>
      .cls-1 {
        fill: #005bb5;
      }

      .cls-1, .cls-2, .cls-3 {
        stroke-width: 0px;
      }

      .cls-2 {
        fill: #002c5f;
      }

      .cls-3 {
        fill: #4d87c1;
      }
    </style>
  </defs>
  <g id="Layer_1" data-name="Layer 1">
    <path class="cls-2" d="M149.17,140.22v32h-21.7v36.07h-37.43v-36.07H0v-17.9L91.13,0h36.34v140.22h21.7ZM90.04,58.86h-.54l-43.12,81.37h43.67V58.86Z"/>
    <path class="cls-2" d="M500,140.22v32h-21.7v36.07h-37.43v-36.07h-90.04v-17.9L441.96,0h36.34v140.22h21.7ZM440.87,58.86h-.54l-43.12,81.37h43.67V58.86Z"/>
    <circle class="cls-3" cx="250" cy="104.15" r="95.98" transform="translate(-.42 207.28) rotate(-45)"/>
    <g>
      <circle class="cls-2" cx="206.98" cy="71.5" r="16.84"/>
      <circle class="cls-2" cx="293.02" cy="71.5" r="16.84"/>
    </g>
    <ellipse class="cls-2" cx="250" cy="142.25" rx="27.18" ry="38.1"/>
    <g>
      <path class="cls-1" d="M0,233.33h6.08l22.77,30.22h.12v-29.07h8.43v44.1h-6.08l-22.77-30.22h-.11v29.36H0v-44.39Z"/>
      <path class="cls-1" d="M105.69,264.95c-.99,2.77-2.43,5.2-4.3,7.28-1.87,2.08-4.14,3.71-6.79,4.87-2.66,1.17-5.59,1.75-8.8,1.75s-6.14-.58-8.8-1.75c-2.66-1.17-4.92-2.79-6.8-4.87-1.87-2.08-3.31-4.51-4.3-7.28-1-2.77-1.49-5.74-1.49-8.92s.51-6.19,1.52-8.95c1.01-2.75,2.47-5.16,4.36-7.23,1.89-2.06,4.16-3.67,6.79-4.82s5.54-1.72,8.72-1.72,6.08.57,8.72,1.72c2.64,1.15,4.9,2.74,6.79,4.79s3.35,4.45,4.36,7.23,1.52,5.76,1.52,8.97-.5,6.15-1.49,8.92ZM97.6,250.53c-.57-1.68-1.41-3.19-2.52-4.53-1.11-1.34-2.46-2.4-4.04-3.18-1.59-.78-3.34-1.17-5.25-1.17s-3.66.39-5.25,1.17c-1.59.78-2.94,1.84-4.04,3.18-1.11,1.34-1.95,2.85-2.52,4.53-.57,1.68-.86,3.4-.86,5.16s.23,3.51.69,5.25c.46,1.74,1.19,3.34,2.21,4.79,1.01,1.45,2.34,2.62,3.99,3.5,1.64.88,3.57,1.32,5.79,1.32s4.15-.44,5.79-1.32c1.64-.88,2.97-2.04,3.99-3.5,1.01-1.45,1.75-3.05,2.21-4.79.46-1.74.69-3.49.69-5.25s-.29-3.48-.86-5.16Z"/>
      <path class="cls-1" d="M148.3,277.71h-8.43v-35.9h-8.72v-7.34h25.86v7.34h-8.72v35.9Z"/>
      <path class="cls-1" d="M230.99,241.81v9.52h12.21v7.34h-12.21v19.04h-8.43v-43.24h21.45v7.34h-13.02Z"/>
      <path class="cls-1" d="M311.27,264.95c-.99,2.77-2.43,5.2-4.3,7.28-1.87,2.08-4.14,3.71-6.79,4.87-2.66,1.17-5.59,1.75-8.8,1.75s-6.14-.58-8.8-1.75c-2.66-1.17-4.92-2.79-6.8-4.87-1.87-2.08-3.31-4.51-4.3-7.28-1-2.77-1.49-5.74-1.49-8.92s.51-6.19,1.52-8.95c1.01-2.75,2.47-5.16,4.36-7.23,1.89-2.06,4.16-3.67,6.79-4.82,2.64-1.15,5.54-1.72,8.72-1.72s6.08.57,8.72,1.72c2.64,1.15,4.9,2.74,6.79,4.79s3.35,4.45,4.36,7.23,1.52,5.76,1.52,8.97-.5,6.15-1.49,8.92ZM303.19,250.53c-.57-1.68-1.41-3.19-2.52-4.53-1.11-1.34-2.46-2.4-4.04-3.18-1.59-.78-3.34-1.17-5.25-1.17s-3.66.39-5.25,1.17c-1.59.78-2.94,1.84-4.04,3.18-1.11,1.34-1.95,2.85-2.52,4.53-.57,1.68-.86,3.4-.86,5.16s.23,3.51.69,5.25c.46,1.74,1.19,3.34,2.21,4.79,1.01,1.45,2.34,2.62,3.99,3.5,1.64.88,3.57,1.32,5.79,1.32s4.15-.44,5.79-1.32c1.64-.88,2.97-2.04,3.99-3.5,1.01-1.45,1.75-3.05,2.21-4.79.46-1.74.69-3.49.69-5.25s-.29-3.48-.86-5.16Z"/>
      <path class="cls-1" d="M339.6,234.47h8.43v24.2c0,1.68.08,3.22.23,4.62.15,1.4.48,2.72.97,3.99.5,1.26,1.27,2.28,2.32,3.07,1.05.78,2.42,1.18,4.1,1.18s3.05-.39,4.1-1.18c1.05-.78,1.83-1.81,2.32-3.07.5-1.26.82-2.59.98-3.99.15-1.39.23-2.93.23-4.62v-24.2h8.43v25.86c0,2.72-.31,5.2-.92,7.46-.61,2.26-1.56,4.21-2.84,5.85-1.28,1.64-2.94,2.92-4.99,3.84-2.05.92-4.48,1.38-7.31,1.38s-5.27-.46-7.31-1.38c-2.05-.92-3.71-2.21-4.99-3.87-1.28-1.66-2.23-3.61-2.84-5.85-.61-2.24-.92-4.71-.92-7.43v-25.86Z"/>
      <path class="cls-1" d="M400.62,233.33h6.08l22.77,30.22h.12v-29.07h8.43v44.1h-6.08l-22.77-30.22h-.11v29.36h-8.43v-44.39Z"/>
      <path class="cls-1" d="M467.08,234.47h12.04c3.06,0,5.88.54,8.46,1.61,2.58,1.07,4.8,2.59,6.65,4.56,1.85,1.97,3.28,4.28,4.27,6.94.99,2.66,1.49,5.52,1.49,8.57s-.51,5.84-1.52,8.46c-1.01,2.62-2.46,4.91-4.33,6.88-1.87,1.97-4.1,3.5-6.68,4.59-2.58,1.09-5.38,1.63-8.4,1.63h-11.99v-43.24ZM475.51,270.37h1.37c4.97,0,8.61-1.25,10.93-3.76,2.31-2.5,3.47-6.01,3.47-10.52,0-9.52-4.8-14.28-14.4-14.28h-1.37v28.56Z"/>
    </g>
  </g>
</svg>