<?xml version="1.0" encoding="UTF-8"?>
<svg id="_레이어_2" data-name="레이어 2" xmlns="http://www.w3.org/2000/svg" viewBox="0 0 13.23 13.23">
  <defs>
    <style>
      .cls-1 {
        fill: #002c5f;
        stroke-width: 0px;
      }
    </style>
  </defs>
  <g id="_1" data-name="1">
    <path class="cls-1" d="M8.34,4.09s0,0,0,0c0,0,0,0,.01.01,0,0,0,0,0,0Z"/>
    <path class="cls-1" d="M8.29,4.04s0,0,0,0c0,0,0,0,.01.01,0,0,0,0,0,0Z"/>
    <polygon class="cls-1" points="8.16 3.98 8.16 3.98 8.17 3.98 8.16 3.98"/>
    <path class="cls-1" d="M8.39,4.14s0,0-.01-.01c0,0,0,.01.01.02,0,0,0,0,0,0Z"/>
    <path class="cls-1" d="M8.43,4.21s0,0,0-.01c0,0,0,0,0,.01,0,0,0,0,0,0Z"/>
    <path class="cls-1" d="M8.23,4.01s0,0,0,0c0,0,0,0,.01,0,0,0,0,0,0,0Z"/>
    <polygon class="cls-1" points="10.6 4.49 10.6 4.49 10.6 4.49 10.6 4.49"/>
    <polygon class="cls-1" points="10.7 3.66 10.7 3.66 10.7 3.66 10.7 3.66"/>
    <path class="cls-1" d="M10.6,4.49s-.02.03-.03.05c.01-.02.02-.04.03-.05Z"/>
    <path class="cls-1" d="M11.7,1.53C9.66-.51,6.35-.51,4.31,1.53c-1.63,1.63-1.99,4.12-.93,6.13-.09.06-.18.12-.26.2L.38,10.59c-.25.25-.38.57-.38.92s.14.68.38.92l.42.42c.25.25.59.38.92.38s.67-.13.92-.38l2.73-2.73c.08-.08.15-.17.2-.26.77.4,1.6.6,2.43.6,1.35,0,2.7-.53,3.7-1.53,2.04-2.04,2.04-5.36,0-7.4ZM5.06,9.81l-2.73,2.73c-.34.34-.89.34-1.22,0l-.42-.42c-.16-.16-.25-.38-.25-.61s.09-.45.25-.61l2.73-2.73c.05-.05.11-.1.17-.13,0,0,0,.01.01.02.04.07.09.14.14.2,0,0,0,.01.01.02.05.07.1.13.15.2,0,.01.02.02.03.04.05.06.11.13.16.19,0,.01.02.02.03.03.06.06.12.13.18.19s.12.12.19.18c.01,0,.02.02.03.03.06.05.12.11.19.16.01.01.03.02.04.03.07.05.13.1.2.15,0,0,.01,0,.02.01.07.05.13.09.2.14,0,0,.01,0,.02.01-.04.06-.08.12-.13.17ZM11.39,8.62c-1.54,1.54-3.93,1.85-5.81.75-.35-.21-.68-.46-.97-.75-.04-.04-.07-.07-.11-.11-.04-.04-.08-.09-.12-.13-.2-.23-.37-.47-.52-.73h0c-1.1-1.88-.79-4.27.75-5.81.93-.93,2.16-1.4,3.39-1.4s2.46.47,3.39,1.4c1.87,1.87,1.87,4.91,0,6.78Z"/>
    <path class="cls-1" d="M9.01,6.71c.3.3.78-.17.47-.47-.33-.33-.67-.67-1-1,.33-.33.67-.67,1-1,.3-.3-.17-.78-.47-.47l-1,1-1-1c-.3-.3-.78.17-.47.47l1,1c-.33.33-.67.67-1,1-.3.3.17.78.47.47l1-1,1,1Z"/>
  </g>
</svg>