<?xml version="1.0" encoding="UTF-8"?>
<svg id="_레이어_2" data-name="레이어 2" xmlns="http://www.w3.org/2000/svg" viewBox="0 0 450 312.96">
  <defs>
    <style>
      .cls-1 {
        fill: #d8f2f1;
      }

      .cls-1, .cls-2, .cls-3, .cls-4, .cls-5, .cls-6, .cls-7 {
        stroke-width: 0px;
      }

      .cls-2 {
        fill: #000;
      }

      .cls-3 {
        fill: #7e8c8d;
      }

      .cls-4 {
        fill: #95a5a5;
      }

      .cls-5 {
        fill: #5b6072;
      }

      .cls-6 {
        fill: #707487;
      }

      .cls-7 {
        fill: #ff7979;
      }
    </style>
  </defs>
  <g id="_155" data-name="155">
    <g>
      <path class="cls-1" d="M221.6,184.66c5.83,0,10.69,4.86,10.69,10.69,0,6.8-4.86,11.66-10.69,11.66-6.8,0-11.66-4.86-11.66-11.66,0-5.83,4.86-10.69,11.66-10.69Z"/>
      <path class="cls-5" d="M279.91,178.83c3.89,0,6.81,2.92,6.81,6.81s-2.92,6.8-6.81,6.8-6.8-2.92-6.8-6.8,2.92-6.81,6.8-6.81Z"/>
      <path class="cls-6" d="M285.74,138.98v26.24c0,3.89-1.94,5.83-5.83,5.83-2.91,0-5.83-1.94-5.83-5.83v-26.24c0-2.91,2.91-5.83,5.83-5.83,3.89,0,5.83,2.92,5.83,5.83Z"/>
      <path class="cls-7" d="M279.91,124.4c21.38,0,39.85,17.49,39.85,39.85s-18.47,38.88-39.85,38.88-38.88-17.49-38.88-38.88,17.5-39.85,38.88-39.85ZM285.74,165.22v-26.24c0-2.91-1.94-5.83-5.83-5.83-2.91,0-5.83,2.92-5.83,5.83v26.24c0,3.89,2.91,5.83,5.83,5.83,3.89,0,5.83-1.94,5.83-5.83ZM286.72,185.64c0-3.89-2.92-6.81-6.81-6.81s-6.8,2.92-6.8,6.81,2.92,6.8,6.8,6.8,6.81-2.92,6.81-6.8Z"/>
      <path class="cls-1" d="M241.03,164.25c0,21.38,17.5,38.88,38.88,38.88s39.85-17.49,39.85-38.88-18.47-39.85-39.85-39.85-38.88,17.49-38.88,39.85ZM393.63,47.62v186.61H81.64V47.62h311.98ZM232.29,195.35c0-5.83-4.86-10.69-10.69-10.69-6.8,0-11.66,4.86-11.66,10.69,0,6.8,4.86,11.66,11.66,11.66,5.83,0,10.69-4.86,10.69-11.66Z"/>
      <path class="cls-3" d="M450,234.23v23.33c0,11.66-17.49,22.35-29.16,22.35H54.43c-11.66,0-29.16-10.69-29.16-22.35v-23.33h424.73Z"/>
      <path class="cls-4" d="M422.79,34.01v200.22h-29.16V47.62H81.64v186.61h-29.16V34.01c0-8.75,6.8-16.52,15.55-16.52h339.2c8.75,0,15.55,7.77,15.55,16.52Z"/>
      <path class="cls-2" d="M37.9,79.69c-1.61,0-2.91-1.3-2.91-2.91V2.91c0-1.61,1.31-2.91,2.91-2.91h62.2c1.61,0,2.91,1.3,2.91,2.91s-1.3,2.91-2.91,2.91h-59.29v70.95c0,1.61-1.31,2.91-2.92,2.91Z"/>
      <path class="cls-2" d="M313.93,296.43H48.59c-1.61,0-2.91-1.3-2.91-2.91s1.31-2.92,2.91-2.92h265.34c1.61,0,2.92,1.3,2.92,2.92s-1.31,2.91-2.92,2.91Z"/>
      <path class="cls-2" d="M397.52,312.96h-207.99c-1.61,0-2.92-1.3-2.92-2.92s1.3-2.91,2.92-2.91h207.99c1.61,0,2.91,1.31,2.91,2.91s-1.3,2.92-2.91,2.92Z"/>
      <path class="cls-2" d="M444.17,312.96h-26.24c-1.61,0-2.92-1.3-2.92-2.92s1.3-2.91,2.92-2.91h26.24c1.61,0,2.92,1.31,2.92,2.91s-1.3,2.92-2.92,2.92Z"/>
      <path class="cls-2" d="M101.08,311.99H2.91c-1.61,0-2.91-1.31-2.91-2.91s1.31-2.92,2.91-2.92h98.17c1.61,0,2.91,1.31,2.91,2.92s-1.31,2.91-2.91,2.91Z"/>
      <path class="cls-2" d="M286.71,116.63c-.54,0-1.1-.15-1.58-.47-19.09-12.41-41.06-18.97-63.53-18.97s-45.14,6.38-64.5,18.97c-1.35.87-3.15.49-4.03-.86-.87-1.35-.49-3.16.86-4.04,20.33-13.21,43.1-19.91,67.68-19.91s46.67,6.88,66.71,19.91c1.35.88,1.74,2.68.86,4.04-.56.86-1.5,1.33-2.45,1.33Z"/>
      <path class="cls-2" d="M173.98,141.9c-.96,0-1.9-.47-2.46-1.34-.87-1.36-.48-3.16.88-4.03,14.32-9.21,31.33-14.07,49.2-14.07,10.83,0,23.61,2.48,35.99,6.98,1.51.55,2.29,2.23,1.74,3.74-.55,1.51-2.22,2.29-3.73,1.74-11.76-4.27-23.83-6.63-34-6.63-16.75,0-32.67,4.54-46.05,13.14-.49.31-1.03.46-1.57.46Z"/>
      <path class="cls-2" d="M194.38,168.14c-.97,0-1.92-.48-2.47-1.37-.85-1.36-.43-3.16.93-4.02,7.91-4.94,17.05-7.24,28.76-7.24,6.76,0,12.81.9,20.24,3.03,1.55.44,2.45,2.05,2,3.6-.44,1.55-2.06,2.44-3.6,2-6.88-1.97-12.46-2.81-18.64-2.81-10.57,0-18.72,2.02-25.67,6.36-.48.3-1.02.44-1.55.44Z"/>
      <path class="cls-2" d="M221.6,209.93c-8.44,0-14.58-6.13-14.58-14.58,0-7.63,6.4-13.61,14.58-13.61,7.5,0,13.61,6.11,13.61,13.61,0,8.18-5.98,14.58-13.61,14.58ZM221.6,187.58c-4.99,0-8.75,3.34-8.75,7.78,0,5.23,3.52,8.75,8.75,8.75,4.43,0,7.78-3.76,7.78-8.75,0-4.21-3.56-7.78-7.78-7.78Z"/>
      <path class="cls-2" d="M351.84,90.39c-.75,0-1.49-.28-2.06-.85-1.14-1.14-1.14-2.99,0-4.12l15.55-15.55c1.14-1.14,2.99-1.14,4.12,0,1.14,1.14,1.14,2.99,0,4.12l-15.55,15.55c-.57.57-1.32.85-2.06.85Z"/>
      <path class="cls-2" d="M367.39,90.39c-.75,0-1.49-.28-2.06-.85l-15.55-15.55c-1.14-1.14-1.14-2.99,0-4.12,1.14-1.14,2.98-1.14,4.12,0l15.55,15.55c1.14,1.14,1.14,2.99,0,4.12-.57.57-1.31.85-2.06.85Z"/>
      <path class="cls-2" d="M323.65,90.39c-.75,0-1.49-.28-2.06-.85-1.14-1.14-1.14-2.99,0-4.12l15.55-15.55c1.14-1.14,2.98-1.14,4.12,0,1.14,1.14,1.14,2.99,0,4.12l-15.55,15.55c-.57.57-1.32.85-2.06.85Z"/>
      <path class="cls-2" d="M339.2,90.39c-.75,0-1.49-.28-2.06-.85l-15.55-15.55c-1.14-1.14-1.14-2.99,0-4.12,1.14-1.14,2.98-1.14,4.12,0l15.55,15.55c1.14,1.14,1.14,2.99,0,4.12-.57.57-1.31.85-2.06.85Z"/>
    </g>
  </g>
</svg>