<?xml version="1.0" encoding="UTF-8"?>
<svg id="_레이어_2" data-name="레이어 2" xmlns="http://www.w3.org/2000/svg" viewBox="0 0 13.85 10.84">
  <defs>
    <style>
      .cls-1 {
        fill: #002c5f;
        stroke-width: 0px;
      }
    </style>
  </defs>
  <g id="_1" data-name="1">
    <polygon class="cls-1" points="4.64 2.2 4.64 2.2 4.64 2.2 4.64 2.2"/>
    <path class="cls-1" d="M4.54,3.03s-.02.03-.03.05c.01-.02.02-.04.03-.05Z"/>
    <polygon class="cls-1" points="4.54 3.03 4.54 3.03 4.54 3.03 4.54 3.03"/>
    <polygon class="cls-1" points="7.07 2.52 7.07 2.52 7.08 2.52 7.07 2.52"/>
    <path class="cls-1" d="M7.35,2.74s0,0,0-.01c0,0,0,0,0,.01,0,0,0,0,0,0Z"/>
    <path class="cls-1" d="M7.3,2.68s0,0,0-.01c0,0,0,.01.01.02,0,0,0,0,0,0Z"/>
    <path class="cls-1" d="M7.26,2.63s0,0,0,0c0,0,0,0,.01.01,0,0,0,0,0,0Z"/>
    <path class="cls-1" d="M7.14,2.55s0,0,0,0c0,0,0,0,.01,0,0,0,0,0,0,0Z"/>
    <path class="cls-1" d="M7.2,2.58s0,0,0,0c0,0,0,0,.01.01,0,0,0,0,0,0Z"/>
    <path class="cls-1" d="M13.83.91c-.01-.48-.32-.83-.79-.89-.02,0-.03,0-.05,0H4.8C3.64.02,2.46-.02,1.3.02.68.04.14.46.03,1.08c-.03.17-.02.35-.02.53v5.02c0,.56-.09,1.21.27,1.68.37.48.89.51,1.44.51h2.93v1.58h-1.38c-.28,0-.28.44,0,.44h7.31c.28,0,.28-.44,0-.44h-1.38v-1.58c1.11,0,2.22.03,3.33,0,.46-.01.89-.23,1.13-.64.18-.31.18-.63.18-.98v-2.5c0-1.26.04-2.53,0-3.8ZM.67.73c.33-.36.87-.28,1.31-.28h11c.45.03.41.47.41.79v5.07c0,.1,0,.2.01.32H.45V2.26c0-.46-.11-1.15.22-1.52ZM5.08,10.41v-1.58h3.68v1.58h-3.68ZM12.8,8.35c-.3.1-.69.04-1,.04h-7.31c-1.06,0-2.12.04-3.18,0-.49-.02-.85-.36-.87-.86,0-.14,0-.28,0-.42v-.03h12.97c0,.54-.08,1.1-.61,1.27Z"/>
    <path class="cls-1" d="M7.93,5.02c.3.3.78-.17.47-.47-.33-.33-.67-.67-1-1,.33-.33.67-.67,1-1,.3-.3-.17-.78-.47-.47l-1,1-1-1c-.3-.3-.78.17-.47.47l1,1c-.33.33-.67.67-1,1-.3.3.17.78.47.47l1-1,1,1Z"/>
  </g>
</svg>