<?xml version="1.0" encoding="UTF-8"?>
<svg id="_레이어_2" data-name="레이어 2" xmlns="http://www.w3.org/2000/svg" viewBox="0 0 45 54.27">
  <defs>
    <style>
      .cls-1 {
        stroke: #002c5f;
      }

      .cls-1, .cls-2 {
        fill: none;
        stroke-linecap: round;
        stroke-linejoin: round;
        stroke-width: 3px;
      }

      .cls-2 {
        stroke: #ff9100;
      }
    </style>
  </defs>
  <g id="Layer_5" data-name="Layer 5">
    <g>
      <rect class="cls-1" x="1.5" y="26.77" width="42" height="26" rx="4" ry="4"/>
      <path class="cls-1" d="M22.5,1.5c-8.22,0-14.88,6.66-14.88,14.88,0,0,0,.02,0,.03,0,.75.06,1.48.17,2.2.33,2.21,1.15,4.25,2.33,6.03.51.77,1.09,1.48,1.73,2.13l3.26,4.02.31.38,7.71,9.49,6.75-9.35v-.14h.1l3.25-4.49c.96-1,1.79-2.14,2.44-3.38.89-1.68,1.46-3.55,1.64-5.54.04-.45.06-.9.07-1.36,0,0,0-.02,0-.03,0-8.22-6.66-14.88-14.88-14.88Z"/>
      <path class="cls-2" d="M27.3,14.77c0,2.65-2.15,4.8-4.8,4.8s-4.8-2.15-4.8-4.8,2.15-4.8,4.8-4.8,4.8,2.15,4.8,4.8Z"/>
    </g>
  </g>
</svg>