<?xml version="1.0" encoding="UTF-8"?>
<svg id="_레이어_2" data-name="레이어 2" xmlns="http://www.w3.org/2000/svg" viewBox="0 0 43.63 56.47">
  <defs>
    <style>
      .cls-1 {
        stroke: #002c5f;
      }

      .cls-1, .cls-2 {
        fill: none;
        stroke-linecap: round;
        stroke-linejoin: round;
        stroke-width: 3px;
      }

      .cls-2 {
        stroke: #ff9100;
      }
    </style>
  </defs>
  <g id="Layer_5" data-name="Layer 5">
    <g>
      <path class="cls-1" d="M21.81,1.5C10.59,1.5,1.5,10.59,1.5,21.81c0,1.03.08,2.04.23,3.03.45,3.01,1.56,5.81,3.19,8.23.7,1.04,1.49,2.02,2.37,2.91l15.4,18.97,13.79-19.09c1.31-1.37,2.44-2.92,3.33-4.61,1.21-2.3,1.99-4.85,2.24-7.56.06-.62.09-1.26.09-1.9,0-11.22-9.09-20.31-20.31-20.31Z"/>
      <g>
        <line class="cls-2" x1="12.99" y1="21.55" x2="30.63" y2="21.55"/>
        <line class="cls-2" x1="21.81" y1="12.73" x2="21.81" y2="30.37"/>
      </g>
    </g>
  </g>
</svg>